[img]http://img860.imageshack.us/img860/2379/flowersv.jpg[/img]
[code]
Flowers Of War 2011 CAM READNFO Xvid-26K

Imdb: 
http://www.imdb.com/title/tt1410063/

Plot:
A Westerner finds refuge with a group of women in a church during Japan\\\'s rape of Nanking in 1937. Posing as a priest, he attempts to lead the women to safety.

Sources:
VICE FOR AUDIO + VIDEO!

Notes:
WHY READNFO BECAUSE THE VIDEO HAS CHINESE SUBS AND ENGLISH SUBS! SO TAKE IT OR LEAVE IT:p
ADDED A FEW FILTERS TO THE VIDEO TO BRIGHTEN IT UP AS THE VIDEO WAS VERY DARK!

Greetz:
Xtreme Encode|FYA|ILLUMANTI|CM8|RX|VISION|HDSCENE|NIGHTMAREZ|xTriLL|DTRG|CRYS|REMIXHD|BIDA
To all the people who have helped me :P you know who you are

Anything to offer email us @: 26k@hushmail.me

Video
ID                                       : 0
Format                                   : MPEG-4 Visual
Format profile                           : Advanced Simple@L5
Format settings, BVOP                    : 2
Format settings, QPel                    : No
Format settings, GMC                     : No warppoints
Format settings, Matrix                  : Default (H.263)
Codec ID                                 : XVID
Codec ID/Hint                            : XviD
Duration                                 : 2h 10mn
Bit rate                                 : 1 400 Kbps
Width                                    : 720 pixels
Height                                   : 320 pixels
Display aspect ratio                     : 2.25:1
Frame rate                               : 29.970 fps
Color space                              : YUV
Chroma subsampling                       : 4:2:0
Bit depth                                : 8 bits
Scan type                                : Progressive
Compression mode                         : Lossy
Bits/(Pixel*Frame)                       : 0.203
Stream size                              : 1.27 GiB (91%)
Writing library                          : XviD 63

Audio
ID                                       : 1
Format                                   : MPEG Audio
Format version                           : Version 1
Format profile                           : Layer 3
Mode                                     : Joint stereo
Mode extension                           : MS Stereo
Codec ID                                 : 55
Codec ID/Hint                            : MP3
Duration                                 : 2h 10mn
Bit rate mode                            : Constant
Bit rate                                 : 128 Kbps
Channel(s)                               : 2 channels
Sampling rate                            : 44.1 KHz
Compression mode                         : Lossy
Stream size                              : 119 MiB (8%)
Alignment                                : Aligned on interleaves
Interleave, duration                     : 33 ms (1.00 video frame)
Writing library                          : LAME3.98r
Encoding settings                        : -m j -V 4 -q 2 -lowpass 17 -b 128

[/code]
Screens:
[img]http://img689.imageshack.us/img689/7581/vlcsnap2011122815h39m54.png[/img]
[img]http://img21.imageshack.us/img21/2821/vlcsnap2011122815h39m57.png[/img]
[img]http://img831.imageshack.us/img831/3748/vlcsnap2011122815h40m03.png[/img]
[img]http://img195.imageshack.us/img195/1127/vlcsnap2011122815h40m18.png[/img]
[img]http://img811.imageshack.us/img811/8600/vlcsnap2011122815h40m22.png[/img]
[img]http://img192.imageshack.us/img192/1831/vlcsnap2011122815h40m29.png[/img]
[img]http://img836.imageshack.us/img836/6092/vlcsnap2011122815h40m35.png[/img]

[img]http://img851.imageshack.us/img851/5503/26ks.jpg[/img]
Thank you smallz for banner!